<svg id="Layer_1_copy" data-name="Layer 1 copy" xmlns="http://www.w3.org/2000/svg" viewBox="0 0 90.75 29.21"><defs><style>.cls-1{fill:#fff;}</style></defs><g id="Group_407" data-name="Group 407"><g id="Group_399" data-name="Group 399"><g id="Group_398" data-name="Group 398"><path id="Path_139" data-name="Path 139" class="cls-1" d="M52.58,5.05a39.66,39.66,0,0,1,6.62-.51c3.4,0,5.9.79,7.48,2.21A7.21,7.21,0,0,1,69,12.34,7.88,7.88,0,0,1,67,18C65.14,20,62.17,21,58.8,21A11.71,11.71,0,0,1,56,20.73V31.42H52.58ZM56,17.92a11.83,11.83,0,0,0,2.85.28c4.16,0,6.69-2,6.69-5.7,0-3.53-2.49-5.23-6.3-5.23A14.19,14.19,0,0,0,56,7.55Z" transform="translate(-4.64 -2.45)"/></g></g><g id="Group_401" data-name="Group 401"><g id="Group_400" data-name="Group 400"><path id="Path_140" data-name="Path 140" class="cls-1" d="M4.64,5.09a33.31,33.31,0,0,1,6.3-.55c3.45,0,5.66.59,7.33,1.94a5.6,5.6,0,0,1,2.22,4.71A6.34,6.34,0,0,1,16,17.05v.08a6.87,6.87,0,0,1,5.5,6.69,7.21,7.21,0,0,1-2.25,5.35c-1.86,1.7-4.87,2.49-9.23,2.49a39.9,39.9,0,0,1-5.35-.31ZM8.09,16h3.13c3.64,0,5.78-1.9,5.78-4.47,0-3.13-2.38-4.36-5.86-4.36a14.17,14.17,0,0,0-3.05.24Zm0,12.79A18.54,18.54,0,0,0,11,29c3.56,0,6.85-1.31,6.85-5.19,0-3.64-3.13-5.15-6.89-5.15H8.09Z" transform="translate(-4.64 -2.45)"/></g></g><path id="Path_141" data-name="Path 141" class="cls-1" d="M36.42,2.45A14.57,14.57,0,1,0,51,17,14.57,14.57,0,0,0,36.42,2.45Zm0,26.32a11.75,11.75,0,0,1-9.92-5.46h7.59V20.59h5V18.4h-5V15.51h5V13.45h-5V10.72H26.5a11.75,11.75,0,1,1,9.92,18Z" transform="translate(-4.64 -2.45)"/><g id="Group_403" data-name="Group 403"><g id="Group_402" data-name="Group 402"><path id="Path_142" data-name="Path 142" class="cls-1" d="M69.59,22.71h-3V21.63h7.25v1.08h-3v8.71H69.59Z" transform="translate(-4.64 -2.45)"/><path id="Path_143" data-name="Path 143" class="cls-1" d="M80,26.83H76.21v3.53h4.24v1.06H75V21.63h5.29v1.06h-4v3.1H80Z" transform="translate(-4.64 -2.45)"/><path id="Path_144" data-name="Path 144" class="cls-1" d="M81.92,29.88a4.45,4.45,0,0,0,2.27.64c1.29,0,2-.68,2-1.67s-.53-1.44-1.85-2c-1.6-.56-2.58-1.39-2.58-2.77s1.26-2.66,3.16-2.66a4.53,4.53,0,0,1,2.17.48l-.35,1a3.77,3.77,0,0,0-1.86-.46c-1.34,0-1.85.8-1.85,1.46,0,.92.6,1.37,2,1.89,1.66.64,2.5,1.44,2.5,2.88s-1.12,2.82-3.43,2.82a5,5,0,0,1-2.5-.63Z" transform="translate(-4.64 -2.45)"/><path id="Path_145" data-name="Path 145" class="cls-1" d="M91.12,22.71h-3V21.63h7.25v1.08h-3v8.71H91.12Z" transform="translate(-4.64 -2.45)"/></g></g></g></svg>