<svg id="Layer_1" data-name="Layer 1" xmlns="http://www.w3.org/2000/svg" viewBox="0 0 705.5 290.03"><defs><style>.cls-1{fill:#fbb03b;}.cls-2{fill:#00a69c;}.cls-3{font-size:20px;font-family:Roboto-Medium, Roboto;font-weight:500;}.cls-4{letter-spacing:-0.03em;}.cls-5{font-size:14px;font-weight:400;}.cls-13,.cls-5{font-family:Roboto-Regular, Roboto;}.cls-6{letter-spacing:0.02em;}.cls-7{letter-spacing:-0.02em;}.cls-8{letter-spacing:-0.01em;}.cls-9{letter-spacing:-0.02em;}.cls-10{fill:none;stroke:#00a69c;stroke-miterlimit:10;}.cls-11{letter-spacing:-0.1em;}.cls-12{letter-spacing:-0.01em;}.cls-13,.cls-19{font-size:23px;}.cls-13{fill:#4d4d4d;}.cls-14{letter-spacing:-0.03em;}.cls-15{letter-spacing:-0.01em;}.cls-16{letter-spacing:-0.04em;}.cls-17{letter-spacing:-0.01em;}.cls-18{letter-spacing:-0.06em;}.cls-19{fill:#fff;font-family:Roboto-Bold, Roboto;font-weight:700;}</style></defs><polygon class="cls-1" points="210.13 118.75 210.13 104.93 176.65 104.93 176.65 86.7 54 86.7 54 170.94 176.65 170.94 176.65 152.71 210.13 152.71 210.13 138.04 176.65 138.04 176.65 118.75 210.13 118.75"/><path class="cls-2" d="M306.14,51.82a88,88,0,0,0-77.33,45.92h62V116h33.48v13.81H290.79v19.3h33.48v14.67H290.79V182h-62A88,88,0,1,0,306.14,51.82Z" transform="translate(-26 -11)"/><text class="cls-3" transform="translate(44.54 223.57)">CONTROL<tspan x="0" y="24">ALGORITHM</tspan></text><text class="cls-3" transform="translate(240 266.24)">TES<tspan class="cls-4" x="35.52" y="0">T</tspan><tspan x="47.07" y="0" xml:space="preserve"> CASE</tspan><tspan class="cls-5"><tspan x="0" y="20">Vi</tspan><tspan class="cls-6" x="12.3" y="20">r</tspan><tspan x="17.38" y="20">tual Building</tspan><tspan class="cls-7" x="94.25" y="20"> </tspan><tspan x="97.45" y="20">Type with Equipment + </tspan><tspan class="cls-8" x="242.57" y="20">P</tspan><tspan x="251.32" y="20">a</tspan><tspan class="cls-9" x="258.94" y="20">r</tspan><tspan x="263.4" y="20">ameters</tspan></tspan></text><path class="cls-2" d="M573.82,140,534.2,100.78v20.46H403.07a88.94,88.94,0,0,1,0,37.51H534.2v20.47Z" transform="translate(-26 -11)"/><polyline class="cls-10" points="185 38 185 18 369 18"/><polyline class="cls-10" points="705 38 705 18 540 18"/><text class="cls-3" transform="translate(579.68 224.73)">RESU<tspan class="cls-11" x="48.9" y="0">L</tspan><tspan class="cls-12" x="57.71" y="0">T</tspan><tspan x="69.7" y="0">S</tspan></text><text class="cls-13" transform="translate(42.94 200.14)">P<tspan class="cls-14" x="14.51" y="0">L</tspan><tspan x="26.28" y="0">UG-IN </tspan><tspan class="cls-15" x="91.55" y="0">Y</tspan><tspan x="105.04" y="0">OUR</tspan></text><text class="cls-13" transform="translate(240 241.2)">SELE<tspan class="cls-15" x="52.17" y="0">C</tspan><tspan class="cls-7" x="66.81" y="0">T</tspan><tspan x="80.08" y="0"> </tspan></text><text class="cls-13" transform="translate(422 179.2)">RUN</text><text class="cls-3" transform="translate(422 200.73)">TES<tspan class="cls-4" x="35.52" y="0">T</tspan><tspan x="47.07" y="0"> </tspan></text><text class="cls-13" transform="translate(579.89 200.34)">E<tspan class="cls-16" x="13.07" y="0">V</tspan><tspan x="26.86" y="0">A</tspan><tspan class="cls-14" x="41.87" y="0">L</tspan><tspan class="cls-17" x="53.64" y="0">U</tspan><tspan class="cls-18" x="68.3" y="0">A</tspan><tspan x="81.86" y="0">TE</tspan></text><circle cx="19" cy="194" r="19"/><text class="cls-19" transform="translate(11.57 202.52)">1</text><circle cx="213" cy="239" r="19"/><text class="cls-19" transform="translate(205.57 247.52) scale(0.86 1)">2</text><circle cx="396" cy="186" r="19"/><text class="cls-19" transform="translate(388.57 194.52) scale(0.86 1)">3</text><circle cx="552" cy="205" r="19"/><text class="cls-19" transform="translate(544.57 213.52) scale(0.86 1)">4</text><path class="cls-2" d="M693.4,124.18v36.28H680.33V124.18c0-8.71,13.07-8.71,13.07,0Zm-8.67-19.27L661,128.69l-10.39-10.4L629.85,139l-10.6-10.61-16.84,16.74-.07,19.79H693.4V178H602.34a12.8,12.8,0,0,1-12.79-12.8V87H602.6l-.13,39.69,16.78-16.78,10.6,10.6,20.71-20.7L661,110.2l14.54-14.53L666.82,87H693.4v26.58l-8.67-8.67ZM620.9,149.72v10.74H607.83V149.72c0-8.71,13.07-8.71,13.07,0ZM639,155.59v4.87H626v-4.87c0-8.71,13.07-8.71,13.07,0Zm18.13-20v24.89H644.08V135.57c0-8.71,13.07-8.71,13.07,0Zm18.12,5.87v19H662.2v-19c0-8.71,13.07-8.71,13.07,0Z" transform="translate(-26 -11)"/><path class="cls-2" d="M486,15.4a67.44,67.44,0,0,1,11.19-.87c5.76,0,10,1.34,12.66,3.75a12.15,12.15,0,0,1,3.95,9.45c0,4.09-1.2,7.3-3.48,9.65-3.08,3.28-8.11,5-13.8,5a19.73,19.73,0,0,1-4.69-.41V60H486Zm5.83,21.78a19.75,19.75,0,0,0,4.82.47c7,0,11.32-3.42,11.32-9.65,0-6-4.22-8.85-10.65-8.85a24.22,24.22,0,0,0-5.49.47Z" transform="translate(-26 -11)"/><path class="cls-2" d="M404.85,15.47a56,56,0,0,1,10.65-.94c5.83,0,9.58,1,12.39,3.28a9.46,9.46,0,0,1,3.76,8c0,4.35-2.88,8.17-7.64,9.91v.14c4.29,1.07,9.31,4.62,9.31,11.32a12.19,12.19,0,0,1-3.82,9.05c-3.15,2.88-8.24,4.22-15.61,4.22a67.52,67.52,0,0,1-9-.54ZM410.68,34H416c6.16,0,9.78-3.22,9.78-7.57,0-5.29-4-7.37-9.92-7.37a25,25,0,0,0-5.15.4Zm0,21.64a31.11,31.11,0,0,0,4.89.27c6,0,11.59-2.21,11.59-8.78,0-6.16-5.3-8.71-11.66-8.71h-4.82Z" transform="translate(-26 -11)"/><path class="cls-2" d="M458.61,11a24.65,24.65,0,1,0,24.65,24.65A24.68,24.68,0,0,0,458.61,11Zm0,44.53a19.85,19.85,0,0,1-16.77-9.23h12.83V41.69h8.47V38h-8.47V33.1h8.47V29.61h-8.47V25H441.84a19.87,19.87,0,1,1,16.77,30.53Z" transform="translate(-26 -11)"/><path class="cls-2" d="M514.74,45.27h-5V43.46H522v1.81H516.9V60h-2.16Z" transform="translate(-26 -11)"/><path class="cls-2" d="M532.39,52.26H526v6h7.17V60h-9.31V43.46h9v1.79H526v5.24h6.44Z" transform="translate(-26 -11)"/><path class="cls-2" d="M535.61,57.42a7.58,7.58,0,0,0,3.83,1.08c2.19,0,3.47-1.16,3.47-2.83s-.89-2.43-3.12-3.29c-2.71-1-4.38-2.36-4.38-4.7,0-2.58,2.14-4.5,5.36-4.5a7.47,7.47,0,0,1,3.66.82l-.59,1.74A6.61,6.61,0,0,0,540.7,45c-2.27,0-3.13,1.36-3.13,2.49,0,1.55,1,2.31,3.3,3.19,2.8,1.09,4.23,2.44,4.23,4.87s-1.9,4.77-5.81,4.77a8.54,8.54,0,0,1-4.22-1.06Z" transform="translate(-26 -11)"/><path class="cls-2" d="M551.17,45.27h-5V43.46h12.26v1.81h-5.06V60h-2.16Z" transform="translate(-26 -11)"/></svg>